<?xml version="1.0" encoding="UTF-8" ?>
<!DOCTYPE svg PUBLIC "-//W3C//DTD SVG 1.1//EN" "http://www.w3.org/Graphics/SVG/1.1/DTD/svg11.dtd">
<svg width="300pt" height="299pt" viewBox="0 0 300 299" version="1.1" xmlns="http://www.w3.org/2000/svg">
<path fill="#ffffff" d=" M 0.00 0.00 L 2.92 0.00 C 2.15 1.16 1.10 2.10 0.00 2.95 L 0.00 0.00 Z" />
<path fill="#000000" d=" M 2.92 0.00 L 5.13 0.00 C 45.49 1.71 85.64 11.24 122.03 28.86 C 145.27 40.39 167.00 55.28 185.24 73.79 C 186.93 75.32 188.36 77.83 190.98 77.61 C 207.30 78.31 223.61 79.09 239.94 79.75 C 241.52 79.88 243.19 79.77 244.71 80.33 C 247.12 82.22 247.75 85.45 249.08 88.08 C 257.81 107.80 266.30 127.63 274.71 147.49 C 275.91 150.74 278.58 154.19 276.59 157.69 C 274.30 157.94 272.00 158.03 269.71 157.76 C 258.87 156.59 248.00 155.61 237.15 154.45 C 235.08 154.22 232.97 154.04 230.93 154.54 C 226.10 156.24 221.85 159.13 217.61 161.92 C 213.84 164.57 210.37 167.62 206.71 170.40 C 209.81 175.65 209.49 182.07 210.41 187.92 C 209.44 192.13 206.02 195.26 203.97 198.98 C 202.56 201.15 200.33 204.97 197.30 202.87 C 192.89 200.00 189.04 196.36 184.82 193.23 C 181.45 197.28 178.27 201.49 175.53 205.99 C 173.52 209.25 171.30 212.50 170.29 216.24 C 170.08 220.37 170.74 224.49 171.02 228.60 C 171.70 238.43 172.45 248.25 173.20 258.08 C 173.11 259.51 173.75 261.42 172.45 262.49 C 171.25 264.25 168.98 263.43 167.38 262.79 C 144.21 252.30 121.07 241.72 98.14 230.73 C 95.94 229.76 95.99 227.03 95.87 225.01 C 95.26 207.59 94.53 190.17 93.90 172.74 C 75.28 156.79 58.58 138.57 44.39 118.58 C 20.74 84.71 3.38 45.40 0.00 3.90 L 0.00 2.95 C 1.10 2.10 2.15 1.16 2.92 0.00 Z" />
<path fill="#ffffff" d=" M 5.13 0.00 L 300.00 0.00 L 300.00 299.00 L 268.41 299.00 C 270.06 296.28 269.39 292.93 269.01 289.96 C 266.66 278.20 260.41 267.80 256.12 256.73 C 255.33 254.24 254.20 251.61 254.71 248.96 C 255.98 246.71 258.87 247.80 260.82 248.27 C 270.04 251.34 279.03 255.10 288.38 257.78 C 292.13 258.78 296.21 259.91 299.99 258.36 C 300.01 254.02 296.86 250.82 294.47 247.54 C 287.33 238.73 279.06 230.93 270.83 223.15 C 267.95 220.25 264.54 217.64 262.70 213.91 C 261.74 211.84 264.64 211.43 266.01 211.34 C 275.06 210.78 283.95 213.20 292.95 213.71 C 295.00 213.72 298.14 213.65 298.44 210.99 C 298.32 208.00 296.84 205.26 295.27 202.79 C 289.83 194.67 281.96 188.65 274.33 182.72 C 260.44 172.47 245.70 163.44 230.93 154.54 C 232.97 154.04 235.08 154.22 237.15 154.45 C 248.00 155.61 258.87 156.59 269.71 157.76 C 272.00 158.03 274.30 157.94 276.59 157.69 C 278.58 154.19 275.91 150.74 274.71 147.49 C 266.30 127.63 257.81 107.80 249.08 88.08 C 247.75 85.45 247.12 82.22 244.71 80.33 C 243.19 79.77 241.52 79.88 239.94 79.75 C 223.61 79.09 207.30 78.31 190.98 77.61 C 188.36 77.83 186.93 75.32 185.24 73.79 C 167.00 55.28 145.27 40.39 122.03 28.86 C 85.64 11.24 45.49 1.71 5.13 0.00 Z" />
<path fill="#ffffff" d=" M 0.00 3.90 C 3.38 45.40 20.74 84.71 44.39 118.58 C 58.58 138.57 75.28 156.79 93.90 172.74 C 94.53 190.17 95.26 207.59 95.87 225.01 C 95.99 227.03 95.94 229.76 98.14 230.73 C 121.07 241.72 144.21 252.30 167.38 262.79 C 168.98 263.43 171.25 264.25 172.45 262.49 C 173.75 261.42 173.11 259.51 173.20 258.08 C 172.45 248.25 171.70 238.43 171.02 228.60 C 174.85 239.33 179.19 249.87 183.81 260.29 C 189.84 273.10 199.27 284.98 212.21 291.27 C 214.87 286.29 215.56 280.55 215.64 274.99 C 215.93 270.10 212.56 266.23 210.51 262.11 C 216.64 265.98 222.00 270.92 227.86 275.17 C 235.60 280.78 243.02 286.87 251.22 291.81 C 256.16 294.77 261.23 297.77 266.93 299.00 L 0.00 299.00 L 0.00 3.90 Z" />
<path fill="#d8dada" d=" M 6.78 6.60 C 43.94 8.21 80.80 16.99 114.65 32.44 C 129.94 39.77 144.81 48.21 158.15 58.74 C 183.65 77.39 203.68 102.80 218.36 130.61 C 221.42 136.70 224.43 142.83 226.71 149.26 C 217.33 153.36 209.39 159.96 201.55 166.40 C 183.07 149.90 164.60 133.38 146.09 116.90 C 144.12 115.24 140.40 113.88 138.65 116.52 C 135.40 120.99 132.39 125.63 129.19 130.13 C 128.12 131.69 126.81 133.84 128.07 135.67 C 132.04 142.76 136.20 149.74 140.20 156.82 C 141.53 159.40 144.08 160.94 146.26 162.72 C 157.44 171.54 168.61 180.39 179.78 189.23 C 173.83 196.38 168.52 204.14 164.56 212.56 C 133.43 196.15 104.22 175.71 79.55 150.52 C 58.31 128.95 40.34 104.05 27.20 76.75 C 16.74 54.67 8.91 31.04 6.78 6.60 Z" />
<path fill="#000000" d=" M 82.54 57.71 C 95.72 54.44 110.79 60.86 117.17 72.94 C 120.97 79.88 120.99 88.54 117.76 95.69 C 114.25 103.68 107.66 111.06 98.75 112.75 C 85.63 115.19 72.41 106.83 66.43 95.39 C 62.09 87.40 61.85 77.26 66.31 69.26 C 69.27 62.91 76.05 59.43 82.54 57.71 Z" />
<path fill="#d8dada" d=" M 81.22 71.12 C 89.27 66.38 100.47 69.67 105.77 77.07 C 111.28 84.81 107.10 97.19 98.03 100.03 C 90.99 102.34 83.24 98.67 78.95 92.99 C 80.87 93.50 83.15 94.39 84.89 92.93 C 90.14 89.05 93.12 82.39 93.25 75.94 C 93.27 72.76 90.66 70.79 88.14 69.42 C 83.67 72.07 79.58 75.82 77.81 80.82 C 76.86 84.23 77.45 87.83 77.80 91.28 C 73.63 85.02 74.93 75.47 81.22 71.12 Z" />
<path fill="#ffffff" d=" M 77.81 80.82 C 79.58 75.82 83.67 72.07 88.14 69.42 C 90.66 70.79 93.27 72.76 93.25 75.94 C 93.12 82.39 90.14 89.05 84.89 92.93 C 83.15 94.39 80.87 93.50 78.95 92.99 C 78.66 92.56 78.09 91.71 77.80 91.28 C 77.45 87.83 76.86 84.23 77.81 80.82 Z" />
<path fill="#bfbfbf" d=" M 195.43 84.25 C 210.70 84.92 225.97 85.61 241.24 86.28 C 250.77 107.84 260.15 129.47 269.27 151.21 C 257.24 150.03 245.22 148.79 233.20 147.60 C 228.78 134.19 221.63 121.90 214.13 110.01 C 208.04 101.33 202.29 92.37 195.43 84.25 Z" />
<path fill="#bfbfbf" d=" M 134.44 133.88 C 136.62 130.72 138.80 127.57 141.00 124.43 C 144.18 130.74 147.33 137.06 150.47 143.40 C 151.19 144.92 152.15 146.34 153.49 147.39 C 169.94 161.24 186.35 175.15 202.78 189.03 C 201.30 191.26 199.82 193.49 198.34 195.72 C 181.21 182.12 164.01 168.60 146.92 154.94 C 142.29 148.25 138.68 140.84 134.44 133.88 Z" />
<path fill="#bfbfbf" d=" M 151.69 130.52 C 168.49 145.62 185.41 160.58 202.24 175.66 C 202.48 177.21 202.73 178.74 202.99 180.29 C 188.33 168.61 174.21 156.28 159.83 144.26 C 155.24 141.05 154.17 135.20 151.69 130.52 Z" />
<path fill="#ff4000" d=" M 217.61 161.92 C 221.85 159.13 226.10 156.24 230.93 154.54 C 245.70 163.44 260.44 172.47 274.33 182.72 C 281.96 188.65 289.83 194.67 295.27 202.79 C 296.84 205.26 298.32 208.00 298.44 210.99 C 298.14 213.65 295.00 213.72 292.95 213.71 C 283.95 213.20 275.06 210.78 266.01 211.34 C 264.64 211.43 261.74 211.84 262.70 213.91 C 264.54 217.64 267.95 220.25 270.83 223.15 C 279.06 230.93 287.33 238.73 294.47 247.54 C 296.86 250.82 300.01 254.02 299.99 258.36 C 296.21 259.91 292.13 258.78 288.38 257.78 C 279.03 255.10 270.04 251.34 260.82 248.27 C 258.87 247.80 255.98 246.71 254.71 248.96 C 254.20 251.61 255.33 254.24 256.12 256.73 C 260.41 267.80 266.66 278.20 269.01 289.96 C 269.39 292.93 270.06 296.28 268.41 299.00 L 266.93 299.00 C 261.23 297.77 256.16 294.77 251.22 291.81 C 243.02 286.87 235.60 280.78 227.86 275.17 C 222.00 270.92 216.64 265.98 210.51 262.11 C 212.56 266.23 215.93 270.10 215.64 274.99 C 215.56 280.55 214.87 286.29 212.21 291.27 C 199.27 284.98 189.84 273.10 183.81 260.29 C 179.19 249.87 174.85 239.33 171.02 228.60 C 170.74 224.49 170.08 220.37 170.29 216.24 C 171.30 212.50 173.52 209.25 175.53 205.99 C 177.45 214.81 179.93 223.51 183.08 231.98 C 185.13 237.47 188.57 242.43 193.22 246.05 C 195.87 243.28 196.29 239.36 196.77 235.74 C 197.53 230.04 195.65 224.48 194.93 218.88 C 197.07 219.16 199.22 219.68 201.04 220.90 C 208.46 225.37 215.29 230.73 222.44 235.60 C 226.88 238.53 230.97 242.30 236.31 243.50 C 235.09 232.49 226.63 223.90 224.98 212.98 C 226.53 213.00 228.15 212.84 229.62 213.49 C 237.28 216.35 244.11 221.89 252.54 222.30 C 251.90 214.76 244.76 210.42 241.95 203.86 C 240.58 200.88 242.12 197.45 244.68 195.71 C 250.12 191.66 256.97 190.42 263.34 188.55 C 257.35 183.34 250.19 179.76 243.54 175.51 C 234.97 170.84 226.48 165.99 217.61 161.92 Z" />
<path fill="#ffc524" d=" M 206.71 170.40 C 210.37 167.62 213.84 164.57 217.61 161.92 C 226.48 165.99 234.97 170.84 243.54 175.51 C 250.19 179.76 257.35 183.34 263.34 188.55 C 256.97 190.42 250.12 191.66 244.68 195.71 C 242.12 197.45 240.58 200.88 241.95 203.86 C 244.76 210.42 251.90 214.76 252.54 222.30 C 244.11 221.89 237.28 216.35 229.62 213.49 C 228.15 212.84 226.53 213.00 224.98 212.98 C 226.63 223.90 235.09 232.49 236.31 243.50 C 230.97 242.30 226.88 238.53 222.44 235.60 C 215.29 230.73 208.46 225.37 201.04 220.90 C 199.22 219.68 197.07 219.16 194.93 218.88 C 195.65 224.48 197.53 230.04 196.77 235.74 C 196.29 239.36 195.87 243.28 193.22 246.05 C 188.57 242.43 185.13 237.47 183.08 231.98 C 179.93 223.51 177.45 214.81 175.53 205.99 C 178.27 201.49 181.45 197.28 184.82 193.23 C 189.04 196.36 192.89 200.00 197.30 202.87 C 200.33 204.97 202.56 201.15 203.97 198.98 C 206.02 195.26 209.44 192.13 210.41 187.92 C 209.49 182.07 209.81 175.65 206.71 170.40 Z" />
<path fill="#bfbfbf" d=" M 100.57 179.10 C 115.22 190.50 130.67 200.88 146.65 210.33 C 152.15 213.74 157.76 217.05 163.82 219.34 C 164.72 231.34 165.63 243.33 166.52 255.34 C 145.04 245.66 123.68 235.73 102.38 225.65 C 101.77 210.14 101.17 194.62 100.57 179.10 Z" />
</svg>
